<mxfile host="65bd71144e">
    <diagram id="h_o1ygW7TY95IRRjwadB" name="Page-1">
        <mxGraphModel dx="2128" dy="1219" grid="1" gridSize="10" guides="1" tooltips="1" connect="1" arrows="1" fold="1" page="1" pageScale="1" pageWidth="1169" pageHeight="1654" math="0" shadow="0">
            <root>
                <mxCell id="0"/>
                <mxCell id="1" parent="0"/>
                <mxCell id="341" value="" style="rounded=0;whiteSpace=wrap;html=1;fontSize=14;" vertex="1" parent="1">
                    <mxGeometry x="20" y="20" width="360" height="660" as="geometry"/>
                </mxCell>
                <mxCell id="339" value="" style="rounded=1;whiteSpace=wrap;html=1;fontSize=14;" vertex="1" parent="1">
                    <mxGeometry x="60" y="95" width="260" height="535" as="geometry"/>
                </mxCell>
                <mxCell id="72" value="Route" style="text;strokeColor=none;align=center;fillColor=none;html=1;verticalAlign=middle;whiteSpace=wrap;rounded=0;fontSize=36;" vertex="1" parent="1">
                    <mxGeometry x="125" y="50" width="130" height="30" as="geometry"/>
                </mxCell>
                <mxCell id="217" value="" style="group" vertex="1" connectable="0" parent="1">
                    <mxGeometry x="102.5" y="240.8" width="192.5" height="610" as="geometry"/>
                </mxCell>
                <mxCell id="218" value="" style="group" vertex="1" connectable="0" parent="217">
                    <mxGeometry width="192.5" height="610" as="geometry"/>
                </mxCell>
                <mxCell id="219" value="" style="group" vertex="1" connectable="0" parent="218">
                    <mxGeometry x="12.5" y="71.20000000000002" width="150" height="30" as="geometry"/>
                </mxCell>
                <mxCell id="220" value="&lt;span style=&quot;color: rgba(0, 0, 0, 0); font-family: monospace; font-size: 0px; text-align: start;&quot;&gt;%3CmxGraphModel%3E%3Croot%3E%3CmxCell%20id%3D%220%22%2F%3E%3CmxCell%20id%3D%221%22%20parent%3D%220%22%2F%3E%3CmxCell%20id%3D%222%22%20value%3D%22%22%20style%3D%22rounded%3D0%3BwhiteSpace%3Dwrap%3Bhtml%3D1%3BfontSize%3D36%3B%22%20vertex%3D%221%22%20parent%3D%221%22%3E%3CmxGeometry%20x%3D%22102.5%22%20y%3D%22127.6%22%20width%3D%22150%22%20height%3D%2212.4%22%20as%3D%22geometry%22%2F%3E%3C%2FmxCell%3E%3C%2Froot%3E%3C%2FmxGraphModel%3E&lt;/span&gt;" style="rounded=0;whiteSpace=wrap;html=1;fontSize=36;" vertex="1" parent="219">
                    <mxGeometry y="8.799999999999988" width="150" height="12.4" as="geometry"/>
                </mxCell>
                <mxCell id="221" value="Bridge" style="text;strokeColor=none;align=center;fillColor=none;html=1;verticalAlign=middle;whiteSpace=wrap;rounded=0;fontSize=8;" vertex="1" parent="219">
                    <mxGeometry x="45" width="60" height="30" as="geometry"/>
                </mxCell>
                <mxCell id="261" value="" style="group" vertex="1" connectable="0" parent="218">
                    <mxGeometry x="-10" y="140" width="200" height="219.2" as="geometry"/>
                </mxCell>
                <mxCell id="263" value="" style="group" vertex="1" connectable="0" parent="261">
                    <mxGeometry x="22.5" y="9.199999999999996" width="150" height="84.80000000000001" as="geometry"/>
                </mxCell>
                <mxCell id="264" value="" style="group" vertex="1" connectable="0" parent="263">
                    <mxGeometry width="150" height="84.80000000000001" as="geometry"/>
                </mxCell>
                <mxCell id="265" value="" style="group" vertex="1" connectable="0" parent="264">
                    <mxGeometry y="-8.799999999999988" width="150" height="93.6" as="geometry"/>
                </mxCell>
                <mxCell id="266" value="&lt;span style=&quot;color: rgba(0, 0, 0, 0); font-family: monospace; font-size: 0px; text-align: start;&quot;&gt;%3CmxGraphModel%3E%3Croot%3E%3CmxCell%20id%3D%220%22%2F%3E%3CmxCell%20id%3D%221%22%20parent%3D%220%22%2F%3E%3CmxCell%20id%3D%222%22%20value%3D%22%22%20style%3D%22rounded%3D0%3BwhiteSpace%3Dwrap%3Bhtml%3D1%3BfontSize%3D36%3B%22%20vertex%3D%221%22%20parent%3D%221%22%3E%3CmxGeometry%20x%3D%22102.5%22%20y%3D%22127.6%22%20width%3D%22150%22%20height%3D%2212.4%22%20as%3D%22geometry%22%2F%3E%3C%2FmxCell%3E%3C%2Froot%3E%3C%2FmxGraphModel%3E&lt;/span&gt;" style="rounded=0;whiteSpace=wrap;html=1;fontSize=36;" vertex="1" parent="265">
                    <mxGeometry y="8.799999999999988" width="150" height="12.4" as="geometry"/>
                </mxCell>
                <mxCell id="267" value="Action&lt;span style=&quot;color: rgba(0, 0, 0, 0); font-family: monospace; font-size: 0px; text-align: start;&quot;&gt;%3CmxGraphModel%3E%3Croot%3E%3CmxCell%20id%3D%220%22%2F%3E%3CmxCell%20id%3D%221%22%20parent%3D%220%22%2F%3E%3CmxCell%20id%3D%222%22%20value%3D%22%22%20style%3D%22rounded%3D0%3BwhiteSpace%3Dwrap%3Bhtml%3D1%3BfontSize%3D36%3B%22%20vertex%3D%221%22%20parent%3D%221%22%3E%3CmxGeometry%20x%3D%22102.5%22%20y%3D%22127.6%22%20width%3D%22150%22%20height%3D%2212.4%22%20as%3D%22geometry%22%2F%3E%3C%2FmxCell%3E%3C%2Froot%3E%3C%2FmxGraphModel%3E&lt;/span&gt;" style="text;strokeColor=none;align=center;fillColor=none;html=1;verticalAlign=middle;whiteSpace=wrap;rounded=0;fontSize=8;" vertex="1" parent="265">
                    <mxGeometry x="45" width="60" height="30" as="geometry"/>
                </mxCell>
                <mxCell id="268" value="" style="group" vertex="1" connectable="0" parent="265">
                    <mxGeometry y="21.19999999999999" width="150" height="72.4" as="geometry"/>
                </mxCell>
                <mxCell id="269" value="" style="group" vertex="1" connectable="0" parent="268">
                    <mxGeometry width="150" height="72.4" as="geometry"/>
                </mxCell>
                <mxCell id="270" value="" style="group" vertex="1" connectable="0" parent="269">
                    <mxGeometry y="-8.799999999999988" width="150" height="81.19999999999999" as="geometry"/>
                </mxCell>
                <mxCell id="271" value="&lt;span style=&quot;color: rgba(0, 0, 0, 0); font-family: monospace; font-size: 0px; text-align: start;&quot;&gt;%3CmxGraphModel%3E%3Croot%3E%3CmxCell%20id%3D%220%22%2F%3E%3CmxCell%20id%3D%221%22%20parent%3D%220%22%2F%3E%3CmxCell%20id%3D%222%22%20value%3D%22%22%20style%3D%22rounded%3D0%3BwhiteSpace%3Dwrap%3Bhtml%3D1%3BfontSize%3D36%3B%22%20vertex%3D%221%22%20parent%3D%221%22%3E%3CmxGeometry%20x%3D%22102.5%22%20y%3D%22127.6%22%20width%3D%22150%22%20height%3D%2212.4%22%20as%3D%22geometry%22%2F%3E%3C%2FmxCell%3E%3C%2Froot%3E%3C%2FmxGraphModel%3E&lt;/span&gt;" style="rounded=0;whiteSpace=wrap;html=1;fontSize=36;" vertex="1" parent="270">
                    <mxGeometry y="8.799999999999988" width="150" height="12.4" as="geometry"/>
                </mxCell>
                <mxCell id="272" value="Action&lt;span style=&quot;color: rgba(0, 0, 0, 0); font-family: monospace; font-size: 0px; text-align: start;&quot;&gt;%3CmxGraphModel%3E%3Croot%3E%3CmxCell%20id%3D%220%22%2F%3E%3CmxCell%20id%3D%221%22%20parent%3D%220%22%2F%3E%3CmxCell%20id%3D%222%22%20value%3D%22%22%20style%3D%22rounded%3D0%3BwhiteSpace%3Dwrap%3Bhtml%3D1%3BfontSize%3D36%3B%22%20vertex%3D%221%22%20parent%3D%221%22%3E%3CmxGeometry%20x%3D%22102.5%22%20y%3D%22127.6%22%20width%3D%22150%22%20height%3D%2212.4%22%20as%3D%22geometry%22%2F%3E%3C%2FmxCell%3E%3C%2Froot%3E%3C%2FmxGraphModel%3E&lt;/span&gt;" style="text;strokeColor=none;align=center;fillColor=none;html=1;verticalAlign=middle;whiteSpace=wrap;rounded=0;fontSize=8;" vertex="1" parent="270">
                    <mxGeometry x="45" width="60" height="30" as="geometry"/>
                </mxCell>
                <mxCell id="273" value="" style="group" vertex="1" connectable="0" parent="270">
                    <mxGeometry y="21.19999999999999" width="150" height="59.99999999999999" as="geometry"/>
                </mxCell>
                <mxCell id="274" value="" style="group" vertex="1" connectable="0" parent="273">
                    <mxGeometry width="150" height="59.99999999999999" as="geometry"/>
                </mxCell>
                <mxCell id="275" value="" style="group" vertex="1" connectable="0" parent="274">
                    <mxGeometry y="-8.799999999999988" width="150" height="30" as="geometry"/>
                </mxCell>
                <mxCell id="276" value="&lt;span style=&quot;color: rgba(0, 0, 0, 0); font-family: monospace; font-size: 0px; text-align: start;&quot;&gt;%3CmxGraphModel%3E%3Croot%3E%3CmxCell%20id%3D%220%22%2F%3E%3CmxCell%20id%3D%221%22%20parent%3D%220%22%2F%3E%3CmxCell%20id%3D%222%22%20value%3D%22%22%20style%3D%22rounded%3D0%3BwhiteSpace%3Dwrap%3Bhtml%3D1%3BfontSize%3D36%3B%22%20vertex%3D%221%22%20parent%3D%221%22%3E%3CmxGeometry%20x%3D%22102.5%22%20y%3D%22127.6%22%20width%3D%22150%22%20height%3D%2212.4%22%20as%3D%22geometry%22%2F%3E%3C%2FmxCell%3E%3C%2Froot%3E%3C%2FmxGraphModel%3E&lt;/span&gt;" style="rounded=0;whiteSpace=wrap;html=1;fontSize=36;" vertex="1" parent="275">
                    <mxGeometry y="8.799999999999988" width="150" height="12.4" as="geometry"/>
                </mxCell>
                <mxCell id="277" value="Action&lt;span style=&quot;color: rgba(0, 0, 0, 0); font-family: monospace; font-size: 0px; text-align: start;&quot;&gt;%3CmxGraphModel%3E%3Croot%3E%3CmxCell%20id%3D%220%22%2F%3E%3CmxCell%20id%3D%221%22%20parent%3D%220%22%2F%3E%3CmxCell%20id%3D%222%22%20value%3D%22%22%20style%3D%22rounded%3D0%3BwhiteSpace%3Dwrap%3Bhtml%3D1%3BfontSize%3D36%3B%22%20vertex%3D%221%22%20parent%3D%221%22%3E%3CmxGeometry%20x%3D%22102.5%22%20y%3D%22127.6%22%20width%3D%22150%22%20height%3D%2212.4%22%20as%3D%22geometry%22%2F%3E%3C%2FmxCell%3E%3C%2Froot%3E%3C%2FmxGraphModel%3E&lt;/span&gt;" style="text;strokeColor=none;align=center;fillColor=none;html=1;verticalAlign=middle;whiteSpace=wrap;rounded=0;fontSize=8;" vertex="1" parent="275">
                    <mxGeometry x="45" width="60" height="30" as="geometry"/>
                </mxCell>
                <mxCell id="337" value="Houdini to another wallet" style="rounded=0;whiteSpace=wrap;html=1;fontSize=14;" vertex="1" parent="261">
                    <mxGeometry x="-2.5" y="159.2" width="202.5" height="60" as="geometry"/>
                </mxCell>
                <mxCell id="262" value="&lt;font style=&quot;font-size: 18px;&quot;&gt;Airdrop Run&lt;/font&gt;" style="swimlane;whiteSpace=wrap;html=1;fontSize=36;align=center;startSize=30;" vertex="1" parent="218">
                    <mxGeometry x="-12.5" y="110" width="202.5" height="180" as="geometry">
                        <mxRectangle width="150" height="60" as="alternateBounds"/>
                    </mxGeometry>
                </mxCell>
                <mxCell id="278" value="" style="group" vertex="1" connectable="0" parent="262">
                    <mxGeometry x="25" y="89.6" width="192.5" height="295.6000000000001" as="geometry"/>
                </mxCell>
                <mxCell id="279" value="" style="group" vertex="1" connectable="0" parent="278">
                    <mxGeometry width="192.5" height="295.6000000000001" as="geometry"/>
                </mxCell>
                <mxCell id="280" value="" style="group" vertex="1" connectable="0" parent="279">
                    <mxGeometry y="-8.799999999999988" width="150" height="30" as="geometry"/>
                </mxCell>
                <mxCell id="301" value="" style="group" vertex="1" connectable="0" parent="280">
                    <mxGeometry width="150" height="30" as="geometry"/>
                </mxCell>
                <mxCell id="281" value="&lt;span style=&quot;color: rgba(0, 0, 0, 0); font-family: monospace; font-size: 0px; text-align: start;&quot;&gt;%3CmxGraphModel%3E%3Croot%3E%3CmxCell%20id%3D%220%22%2F%3E%3CmxCell%20id%3D%221%22%20parent%3D%220%22%2F%3E%3CmxCell%20id%3D%222%22%20value%3D%22%22%20style%3D%22rounded%3D0%3BwhiteSpace%3Dwrap%3Bhtml%3D1%3BfontSize%3D36%3B%22%20vertex%3D%221%22%20parent%3D%221%22%3E%3CmxGeometry%20x%3D%22102.5%22%20y%3D%22127.6%22%20width%3D%22150%22%20height%3D%2212.4%22%20as%3D%22geometry%22%2F%3E%3C%2FmxCell%3E%3C%2Froot%3E%3C%2FmxGraphModel%3E&lt;/span&gt;" style="rounded=0;whiteSpace=wrap;html=1;fontSize=36;" vertex="1" parent="301">
                    <mxGeometry y="8.799999999999988" width="150" height="12.4" as="geometry"/>
                </mxCell>
                <mxCell id="282" value="Bridge" style="text;strokeColor=none;align=center;fillColor=none;html=1;verticalAlign=middle;whiteSpace=wrap;rounded=0;fontSize=8;" vertex="1" parent="301">
                    <mxGeometry x="45" width="60" height="30" as="geometry"/>
                </mxCell>
                <mxCell id="283" value="" style="group" vertex="1" connectable="0" parent="279">
                    <mxGeometry y="23.200000000000045" width="192.5" height="272.40000000000003" as="geometry"/>
                </mxCell>
                <mxCell id="284" value="" style="group" vertex="1" connectable="0" parent="283">
                    <mxGeometry width="192.5" height="272.40000000000003" as="geometry"/>
                </mxCell>
                <mxCell id="285" value="" style="group" vertex="1" connectable="0" parent="284">
                    <mxGeometry y="-8.799999999999988" width="192.5" height="281.20000000000005" as="geometry"/>
                </mxCell>
                <mxCell id="286" value="&lt;span style=&quot;color: rgba(0, 0, 0, 0); font-family: monospace; font-size: 0px; text-align: start;&quot;&gt;%3CmxGraphModel%3E%3Croot%3E%3CmxCell%20id%3D%220%22%2F%3E%3CmxCell%20id%3D%221%22%20parent%3D%220%22%2F%3E%3CmxCell%20id%3D%222%22%20value%3D%22%22%20style%3D%22rounded%3D0%3BwhiteSpace%3Dwrap%3Bhtml%3D1%3BfontSize%3D36%3B%22%20vertex%3D%221%22%20parent%3D%221%22%3E%3CmxGeometry%20x%3D%22102.5%22%20y%3D%22127.6%22%20width%3D%22150%22%20height%3D%2212.4%22%20as%3D%22geometry%22%2F%3E%3C%2FmxCell%3E%3C%2Froot%3E%3C%2FmxGraphModel%3E&lt;/span&gt;" style="rounded=0;whiteSpace=wrap;html=1;fontSize=36;" vertex="1" parent="285">
                    <mxGeometry y="8.799999999999988" width="150" height="12.4" as="geometry"/>
                </mxCell>
                <mxCell id="287" value="Action&lt;span style=&quot;color: rgba(0, 0, 0, 0); font-family: monospace; font-size: 0px; text-align: start;&quot;&gt;%3CmxGraphModel%3E%3Croot%3E%3CmxCell%20id%3D%220%22%2F%3E%3CmxCell%20id%3D%221%22%20parent%3D%220%22%2F%3E%3CmxCell%20id%3D%222%22%20value%3D%22%22%20style%3D%22rounded%3D0%3BwhiteSpace%3Dwrap%3Bhtml%3D1%3BfontSize%3D36%3B%22%20vertex%3D%221%22%20parent%3D%221%22%3E%3CmxGeometry%20x%3D%22102.5%22%20y%3D%22127.6%22%20width%3D%22150%22%20height%3D%2212.4%22%20as%3D%22geometry%22%2F%3E%3C%2FmxCell%3E%3C%2Froot%3E%3C%2FmxGraphModel%3E&lt;/span&gt;" style="text;strokeColor=none;align=center;fillColor=none;html=1;verticalAlign=middle;whiteSpace=wrap;rounded=0;fontSize=8;" vertex="1" parent="285">
                    <mxGeometry x="45" width="60" height="30" as="geometry"/>
                </mxCell>
                <mxCell id="288" value="" style="group" vertex="1" connectable="0" parent="285">
                    <mxGeometry y="21.19999999999999" width="192.5" height="260.00000000000006" as="geometry"/>
                </mxCell>
                <mxCell id="289" value="" style="group" vertex="1" connectable="0" parent="288">
                    <mxGeometry width="192.5" height="260.00000000000006" as="geometry"/>
                </mxCell>
                <mxCell id="290" value="" style="group" vertex="1" connectable="0" parent="289">
                    <mxGeometry y="-8.799999999999988" width="192.5" height="268.80000000000007" as="geometry"/>
                </mxCell>
                <mxCell id="291" value="&lt;span style=&quot;color: rgba(0, 0, 0, 0); font-family: monospace; font-size: 0px; text-align: start;&quot;&gt;%3CmxGraphModel%3E%3Croot%3E%3CmxCell%20id%3D%220%22%2F%3E%3CmxCell%20id%3D%221%22%20parent%3D%220%22%2F%3E%3CmxCell%20id%3D%222%22%20value%3D%22%22%20style%3D%22rounded%3D0%3BwhiteSpace%3Dwrap%3Bhtml%3D1%3BfontSize%3D36%3B%22%20vertex%3D%221%22%20parent%3D%221%22%3E%3CmxGeometry%20x%3D%22102.5%22%20y%3D%22127.6%22%20width%3D%22150%22%20height%3D%2212.4%22%20as%3D%22geometry%22%2F%3E%3C%2FmxCell%3E%3C%2Froot%3E%3C%2FmxGraphModel%3E&lt;/span&gt;" style="rounded=0;whiteSpace=wrap;html=1;fontSize=36;" vertex="1" parent="290">
                    <mxGeometry y="8.799999999999988" width="150" height="12.4" as="geometry"/>
                </mxCell>
                <mxCell id="292" value="Action&lt;span style=&quot;color: rgba(0, 0, 0, 0); font-family: monospace; font-size: 0px; text-align: start;&quot;&gt;%3CmxGraphModel%3E%3Croot%3E%3CmxCell%20id%3D%220%22%2F%3E%3CmxCell%20id%3D%221%22%20parent%3D%220%22%2F%3E%3CmxCell%20id%3D%222%22%20value%3D%22%22%20style%3D%22rounded%3D0%3BwhiteSpace%3Dwrap%3Bhtml%3D1%3BfontSize%3D36%3B%22%20vertex%3D%221%22%20parent%3D%221%22%3E%3CmxGeometry%20x%3D%22102.5%22%20y%3D%22127.6%22%20width%3D%22150%22%20height%3D%2212.4%22%20as%3D%22geometry%22%2F%3E%3C%2FmxCell%3E%3C%2Froot%3E%3C%2FmxGraphModel%3E&lt;/span&gt;" style="text;strokeColor=none;align=center;fillColor=none;html=1;verticalAlign=middle;whiteSpace=wrap;rounded=0;fontSize=8;" vertex="1" parent="290">
                    <mxGeometry x="45" width="60" height="30" as="geometry"/>
                </mxCell>
                <mxCell id="293" value="" style="group" vertex="1" connectable="0" parent="290">
                    <mxGeometry y="21.19999999999999" width="192.5" height="247.6000000000001" as="geometry"/>
                </mxCell>
                <mxCell id="294" value="" style="group" vertex="1" connectable="0" parent="293">
                    <mxGeometry width="192.5" height="247.6000000000001" as="geometry"/>
                </mxCell>
                <mxCell id="295" value="" style="group" vertex="1" connectable="0" parent="294">
                    <mxGeometry y="-8.799999999999988" width="192.5" height="256.4000000000001" as="geometry"/>
                </mxCell>
                <mxCell id="296" value="&lt;span style=&quot;color: rgba(0, 0, 0, 0); font-family: monospace; font-size: 0px; text-align: start;&quot;&gt;%3CmxGraphModel%3E%3Croot%3E%3CmxCell%20id%3D%220%22%2F%3E%3CmxCell%20id%3D%221%22%20parent%3D%220%22%2F%3E%3CmxCell%20id%3D%222%22%20value%3D%22%22%20style%3D%22rounded%3D0%3BwhiteSpace%3Dwrap%3Bhtml%3D1%3BfontSize%3D36%3B%22%20vertex%3D%221%22%20parent%3D%221%22%3E%3CmxGeometry%20x%3D%22102.5%22%20y%3D%22127.6%22%20width%3D%22150%22%20height%3D%2212.4%22%20as%3D%22geometry%22%2F%3E%3C%2FmxCell%3E%3C%2Froot%3E%3C%2FmxGraphModel%3E&lt;/span&gt;" style="rounded=0;whiteSpace=wrap;html=1;fontSize=36;" vertex="1" parent="295">
                    <mxGeometry y="8.799999999999988" width="150" height="12.4" as="geometry"/>
                </mxCell>
                <mxCell id="297" value="Action&lt;span style=&quot;color: rgba(0, 0, 0, 0); font-family: monospace; font-size: 0px; text-align: start;&quot;&gt;%3CmxGraphModel%3E%3Croot%3E%3CmxCell%20id%3D%220%22%2F%3E%3CmxCell%20id%3D%221%22%20parent%3D%220%22%2F%3E%3CmxCell%20id%3D%222%22%20value%3D%22%22%20style%3D%22rounded%3D0%3BwhiteSpace%3Dwrap%3Bhtml%3D1%3BfontSize%3D36%3B%22%20vertex%3D%221%22%20parent%3D%221%22%3E%3CmxGeometry%20x%3D%22102.5%22%20y%3D%22127.6%22%20width%3D%22150%22%20height%3D%2212.4%22%20as%3D%22geometry%22%2F%3E%3C%2FmxCell%3E%3C%2Froot%3E%3C%2FmxGraphModel%3E&lt;/span&gt;" style="text;strokeColor=none;align=center;fillColor=none;html=1;verticalAlign=middle;whiteSpace=wrap;rounded=0;fontSize=8;" vertex="1" parent="295">
                    <mxGeometry x="45" width="60" height="30" as="geometry"/>
                </mxCell>
                <mxCell id="302" value="" style="group" vertex="1" connectable="0" parent="295">
                    <mxGeometry y="30.000000000000057" width="192.5" height="226.4" as="geometry"/>
                </mxCell>
                <mxCell id="303" value="" style="group" vertex="1" connectable="0" parent="302">
                    <mxGeometry width="192.5" height="226.4" as="geometry"/>
                </mxCell>
                <mxCell id="304" value="" style="group" vertex="1" connectable="0" parent="303">
                    <mxGeometry y="-8.799999999999988" width="150" height="30" as="geometry"/>
                </mxCell>
                <mxCell id="305" value="" style="group" vertex="1" connectable="0" parent="304">
                    <mxGeometry width="150" height="30" as="geometry"/>
                </mxCell>
                <mxCell id="306" value="&lt;span style=&quot;color: rgba(0, 0, 0, 0); font-family: monospace; font-size: 0px; text-align: start;&quot;&gt;%3CmxGraphModel%3E%3Croot%3E%3CmxCell%20id%3D%220%22%2F%3E%3CmxCell%20id%3D%221%22%20parent%3D%220%22%2F%3E%3CmxCell%20id%3D%222%22%20value%3D%22%22%20style%3D%22rounded%3D0%3BwhiteSpace%3Dwrap%3Bhtml%3D1%3BfontSize%3D36%3B%22%20vertex%3D%221%22%20parent%3D%221%22%3E%3CmxGeometry%20x%3D%22102.5%22%20y%3D%22127.6%22%20width%3D%22150%22%20height%3D%2212.4%22%20as%3D%22geometry%22%2F%3E%3C%2FmxCell%3E%3C%2Froot%3E%3C%2FmxGraphModel%3E&lt;/span&gt;" style="rounded=0;whiteSpace=wrap;html=1;fontSize=36;" vertex="1" parent="305">
                    <mxGeometry y="8.799999999999988" width="150" height="12.4" as="geometry"/>
                </mxCell>
                <mxCell id="307" value="Bridge" style="text;strokeColor=none;align=center;fillColor=none;html=1;verticalAlign=middle;whiteSpace=wrap;rounded=0;fontSize=8;" vertex="1" parent="305">
                    <mxGeometry x="45" width="60" height="30" as="geometry"/>
                </mxCell>
                <mxCell id="222" value="" style="group" vertex="1" connectable="0" parent="1">
                    <mxGeometry x="90" y="170" width="200" height="170" as="geometry"/>
                </mxCell>
                <mxCell id="29" value="&lt;font style=&quot;font-size: 18px;&quot;&gt;Legacy Run&lt;/font&gt;" style="swimlane;whiteSpace=wrap;html=1;fontSize=36;align=center;startSize=30;" vertex="1" parent="222">
                    <mxGeometry width="200" height="170" as="geometry"/>
                </mxCell>
                <mxCell id="112" value="" style="group" vertex="1" connectable="0" parent="222">
                    <mxGeometry x="25" y="37.599999999999994" width="150" height="84.80000000000001" as="geometry"/>
                </mxCell>
                <mxCell id="113" value="" style="group" vertex="1" connectable="0" parent="112">
                    <mxGeometry width="150" height="84.80000000000001" as="geometry"/>
                </mxCell>
                <mxCell id="169" value="" style="group" vertex="1" connectable="0" parent="113">
                    <mxGeometry y="-8.799999999999988" width="150" height="93.6" as="geometry"/>
                </mxCell>
                <mxCell id="114" value="&lt;span style=&quot;color: rgba(0, 0, 0, 0); font-family: monospace; font-size: 0px; text-align: start;&quot;&gt;%3CmxGraphModel%3E%3Croot%3E%3CmxCell%20id%3D%220%22%2F%3E%3CmxCell%20id%3D%221%22%20parent%3D%220%22%2F%3E%3CmxCell%20id%3D%222%22%20value%3D%22%22%20style%3D%22rounded%3D0%3BwhiteSpace%3Dwrap%3Bhtml%3D1%3BfontSize%3D36%3B%22%20vertex%3D%221%22%20parent%3D%221%22%3E%3CmxGeometry%20x%3D%22102.5%22%20y%3D%22127.6%22%20width%3D%22150%22%20height%3D%2212.4%22%20as%3D%22geometry%22%2F%3E%3C%2FmxCell%3E%3C%2Froot%3E%3C%2FmxGraphModel%3E&lt;/span&gt;" style="rounded=0;whiteSpace=wrap;html=1;fontSize=36;" vertex="1" parent="169">
                    <mxGeometry y="8.799999999999988" width="150" height="12.4" as="geometry"/>
                </mxCell>
                <mxCell id="165" value="Action&lt;span style=&quot;color: rgba(0, 0, 0, 0); font-family: monospace; font-size: 0px; text-align: start;&quot;&gt;%3CmxGraphModel%3E%3Croot%3E%3CmxCell%20id%3D%220%22%2F%3E%3CmxCell%20id%3D%221%22%20parent%3D%220%22%2F%3E%3CmxCell%20id%3D%222%22%20value%3D%22%22%20style%3D%22rounded%3D0%3BwhiteSpace%3Dwrap%3Bhtml%3D1%3BfontSize%3D36%3B%22%20vertex%3D%221%22%20parent%3D%221%22%3E%3CmxGeometry%20x%3D%22102.5%22%20y%3D%22127.6%22%20width%3D%22150%22%20height%3D%2212.4%22%20as%3D%22geometry%22%2F%3E%3C%2FmxCell%3E%3C%2Froot%3E%3C%2FmxGraphModel%3E&lt;/span&gt;" style="text;strokeColor=none;align=center;fillColor=none;html=1;verticalAlign=middle;whiteSpace=wrap;rounded=0;fontSize=8;" vertex="1" parent="169">
                    <mxGeometry x="45" width="60" height="30" as="geometry"/>
                </mxCell>
                <mxCell id="170" value="" style="group" vertex="1" connectable="0" parent="169">
                    <mxGeometry y="21.19999999999999" width="150" height="72.4" as="geometry"/>
                </mxCell>
                <mxCell id="171" value="" style="group" vertex="1" connectable="0" parent="170">
                    <mxGeometry width="150" height="72.4" as="geometry"/>
                </mxCell>
                <mxCell id="172" value="" style="group" vertex="1" connectable="0" parent="171">
                    <mxGeometry y="-8.799999999999988" width="150" height="81.19999999999999" as="geometry"/>
                </mxCell>
                <mxCell id="173" value="&lt;span style=&quot;color: rgba(0, 0, 0, 0); font-family: monospace; font-size: 0px; text-align: start;&quot;&gt;%3CmxGraphModel%3E%3Croot%3E%3CmxCell%20id%3D%220%22%2F%3E%3CmxCell%20id%3D%221%22%20parent%3D%220%22%2F%3E%3CmxCell%20id%3D%222%22%20value%3D%22%22%20style%3D%22rounded%3D0%3BwhiteSpace%3Dwrap%3Bhtml%3D1%3BfontSize%3D36%3B%22%20vertex%3D%221%22%20parent%3D%221%22%3E%3CmxGeometry%20x%3D%22102.5%22%20y%3D%22127.6%22%20width%3D%22150%22%20height%3D%2212.4%22%20as%3D%22geometry%22%2F%3E%3C%2FmxCell%3E%3C%2Froot%3E%3C%2FmxGraphModel%3E&lt;/span&gt;" style="rounded=0;whiteSpace=wrap;html=1;fontSize=36;" vertex="1" parent="172">
                    <mxGeometry y="8.799999999999988" width="150" height="12.4" as="geometry"/>
                </mxCell>
                <mxCell id="174" value="Action&lt;span style=&quot;color: rgba(0, 0, 0, 0); font-family: monospace; font-size: 0px; text-align: start;&quot;&gt;%3CmxGraphModel%3E%3Croot%3E%3CmxCell%20id%3D%220%22%2F%3E%3CmxCell%20id%3D%221%22%20parent%3D%220%22%2F%3E%3CmxCell%20id%3D%222%22%20value%3D%22%22%20style%3D%22rounded%3D0%3BwhiteSpace%3Dwrap%3Bhtml%3D1%3BfontSize%3D36%3B%22%20vertex%3D%221%22%20parent%3D%221%22%3E%3CmxGeometry%20x%3D%22102.5%22%20y%3D%22127.6%22%20width%3D%22150%22%20height%3D%2212.4%22%20as%3D%22geometry%22%2F%3E%3C%2FmxCell%3E%3C%2Froot%3E%3C%2FmxGraphModel%3E&lt;/span&gt;" style="text;strokeColor=none;align=center;fillColor=none;html=1;verticalAlign=middle;whiteSpace=wrap;rounded=0;fontSize=8;" vertex="1" parent="172">
                    <mxGeometry x="45" width="60" height="30" as="geometry"/>
                </mxCell>
                <mxCell id="180" value="" style="group" vertex="1" connectable="0" parent="172">
                    <mxGeometry y="21.19999999999999" width="150" height="59.99999999999999" as="geometry"/>
                </mxCell>
                <mxCell id="181" value="" style="group" vertex="1" connectable="0" parent="180">
                    <mxGeometry width="150" height="59.99999999999999" as="geometry"/>
                </mxCell>
                <mxCell id="182" value="" style="group" vertex="1" connectable="0" parent="181">
                    <mxGeometry y="-8.799999999999988" width="150" height="30" as="geometry"/>
                </mxCell>
                <mxCell id="183" value="&lt;span style=&quot;color: rgba(0, 0, 0, 0); font-family: monospace; font-size: 0px; text-align: start;&quot;&gt;%3CmxGraphModel%3E%3Croot%3E%3CmxCell%20id%3D%220%22%2F%3E%3CmxCell%20id%3D%221%22%20parent%3D%220%22%2F%3E%3CmxCell%20id%3D%222%22%20value%3D%22%22%20style%3D%22rounded%3D0%3BwhiteSpace%3Dwrap%3Bhtml%3D1%3BfontSize%3D36%3B%22%20vertex%3D%221%22%20parent%3D%221%22%3E%3CmxGeometry%20x%3D%22102.5%22%20y%3D%22127.6%22%20width%3D%22150%22%20height%3D%2212.4%22%20as%3D%22geometry%22%2F%3E%3C%2FmxCell%3E%3C%2Froot%3E%3C%2FmxGraphModel%3E&lt;/span&gt;" style="rounded=0;whiteSpace=wrap;html=1;fontSize=36;" vertex="1" parent="182">
                    <mxGeometry y="8.799999999999988" width="150" height="12.4" as="geometry"/>
                </mxCell>
                <mxCell id="184" value="Action&lt;span style=&quot;color: rgba(0, 0, 0, 0); font-family: monospace; font-size: 0px; text-align: start;&quot;&gt;%3CmxGraphModel%3E%3Croot%3E%3CmxCell%20id%3D%220%22%2F%3E%3CmxCell%20id%3D%221%22%20parent%3D%220%22%2F%3E%3CmxCell%20id%3D%222%22%20value%3D%22%22%20style%3D%22rounded%3D0%3BwhiteSpace%3Dwrap%3Bhtml%3D1%3BfontSize%3D36%3B%22%20vertex%3D%221%22%20parent%3D%221%22%3E%3CmxGeometry%20x%3D%22102.5%22%20y%3D%22127.6%22%20width%3D%22150%22%20height%3D%2212.4%22%20as%3D%22geometry%22%2F%3E%3C%2FmxCell%3E%3C%2Froot%3E%3C%2FmxGraphModel%3E&lt;/span&gt;" style="text;strokeColor=none;align=center;fillColor=none;html=1;verticalAlign=middle;whiteSpace=wrap;rounded=0;fontSize=8;" vertex="1" parent="182">
                    <mxGeometry x="45" width="60" height="30" as="geometry"/>
                </mxCell>
                <mxCell id="197" value="" style="group" vertex="1" connectable="0" parent="222">
                    <mxGeometry x="25" y="83.6" width="150" height="59.99999999999999" as="geometry"/>
                </mxCell>
                <mxCell id="198" value="" style="group" vertex="1" connectable="0" parent="197">
                    <mxGeometry width="150" height="59.99999999999999" as="geometry"/>
                </mxCell>
                <mxCell id="199" value="" style="group" vertex="1" connectable="0" parent="198">
                    <mxGeometry y="-8.799999999999988" width="150" height="30" as="geometry"/>
                </mxCell>
                <mxCell id="200" value="&lt;span style=&quot;color: rgba(0, 0, 0, 0); font-family: monospace; font-size: 0px; text-align: start;&quot;&gt;%3CmxGraphModel%3E%3Croot%3E%3CmxCell%20id%3D%220%22%2F%3E%3CmxCell%20id%3D%221%22%20parent%3D%220%22%2F%3E%3CmxCell%20id%3D%222%22%20value%3D%22%22%20style%3D%22rounded%3D0%3BwhiteSpace%3Dwrap%3Bhtml%3D1%3BfontSize%3D36%3B%22%20vertex%3D%221%22%20parent%3D%221%22%3E%3CmxGeometry%20x%3D%22102.5%22%20y%3D%22127.6%22%20width%3D%22150%22%20height%3D%2212.4%22%20as%3D%22geometry%22%2F%3E%3C%2FmxCell%3E%3C%2Froot%3E%3C%2FmxGraphModel%3E&lt;/span&gt;" style="rounded=0;whiteSpace=wrap;html=1;fontSize=36;" vertex="1" parent="199">
                    <mxGeometry y="8.799999999999988" width="150" height="12.4" as="geometry"/>
                </mxCell>
                <mxCell id="201" value="Bridge" style="text;strokeColor=none;align=center;fillColor=none;html=1;verticalAlign=middle;whiteSpace=wrap;rounded=0;fontSize=8;" vertex="1" parent="199">
                    <mxGeometry x="45" width="60" height="30" as="geometry"/>
                </mxCell>
                <mxCell id="39" value="&lt;font style=&quot;font-size: 24px;&quot;&gt;Cycle&lt;/font&gt;" style="text;strokeColor=none;align=center;fillColor=none;html=1;verticalAlign=middle;whiteSpace=wrap;rounded=0;fontSize=36;" vertex="1" parent="1">
                    <mxGeometry x="160" y="110" width="60" height="30" as="geometry"/>
                </mxCell>
                <mxCell id="246" value="" style="group" vertex="1" connectable="0" parent="1">
                    <mxGeometry x="115" y="274.8" width="150" height="84.80000000000001" as="geometry"/>
                </mxCell>
                <mxCell id="247" value="" style="group" vertex="1" connectable="0" parent="246">
                    <mxGeometry width="150" height="84.80000000000001" as="geometry"/>
                </mxCell>
                <mxCell id="248" value="" style="group" vertex="1" connectable="0" parent="247">
                    <mxGeometry y="-8.799999999999988" width="150" height="93.6" as="geometry"/>
                </mxCell>
                <mxCell id="249" value="&lt;span style=&quot;color: rgba(0, 0, 0, 0); font-family: monospace; font-size: 0px; text-align: start;&quot;&gt;%3CmxGraphModel%3E%3Croot%3E%3CmxCell%20id%3D%220%22%2F%3E%3CmxCell%20id%3D%221%22%20parent%3D%220%22%2F%3E%3CmxCell%20id%3D%222%22%20value%3D%22%22%20style%3D%22rounded%3D0%3BwhiteSpace%3Dwrap%3Bhtml%3D1%3BfontSize%3D36%3B%22%20vertex%3D%221%22%20parent%3D%221%22%3E%3CmxGeometry%20x%3D%22102.5%22%20y%3D%22127.6%22%20width%3D%22150%22%20height%3D%2212.4%22%20as%3D%22geometry%22%2F%3E%3C%2FmxCell%3E%3C%2Froot%3E%3C%2FmxGraphModel%3E&lt;/span&gt;" style="rounded=0;whiteSpace=wrap;html=1;fontSize=36;" vertex="1" parent="248">
                    <mxGeometry y="8.799999999999988" width="150" height="12.4" as="geometry"/>
                </mxCell>
                <mxCell id="250" value="Action&lt;span style=&quot;color: rgba(0, 0, 0, 0); font-family: monospace; font-size: 0px; text-align: start;&quot;&gt;%3CmxGraphModel%3E%3Croot%3E%3CmxCell%20id%3D%220%22%2F%3E%3CmxCell%20id%3D%221%22%20parent%3D%220%22%2F%3E%3CmxCell%20id%3D%222%22%20value%3D%22%22%20style%3D%22rounded%3D0%3BwhiteSpace%3Dwrap%3Bhtml%3D1%3BfontSize%3D36%3B%22%20vertex%3D%221%22%20parent%3D%221%22%3E%3CmxGeometry%20x%3D%22102.5%22%20y%3D%22127.6%22%20width%3D%22150%22%20height%3D%2212.4%22%20as%3D%22geometry%22%2F%3E%3C%2FmxCell%3E%3C%2Froot%3E%3C%2FmxGraphModel%3E&lt;/span&gt;" style="text;strokeColor=none;align=center;fillColor=none;html=1;verticalAlign=middle;whiteSpace=wrap;rounded=0;fontSize=8;" vertex="1" parent="248">
                    <mxGeometry x="45" width="60" height="30" as="geometry"/>
                </mxCell>
                <mxCell id="251" value="" style="group" vertex="1" connectable="0" parent="248">
                    <mxGeometry y="21.19999999999999" width="150" height="72.4" as="geometry"/>
                </mxCell>
                <mxCell id="252" value="" style="group" vertex="1" connectable="0" parent="251">
                    <mxGeometry width="150" height="72.4" as="geometry"/>
                </mxCell>
                <mxCell id="253" value="" style="group" vertex="1" connectable="0" parent="252">
                    <mxGeometry y="-8.799999999999988" width="150" height="81.19999999999999" as="geometry"/>
                </mxCell>
                <mxCell id="254" value="&lt;span style=&quot;color: rgba(0, 0, 0, 0); font-family: monospace; font-size: 0px; text-align: start;&quot;&gt;%3CmxGraphModel%3E%3Croot%3E%3CmxCell%20id%3D%220%22%2F%3E%3CmxCell%20id%3D%221%22%20parent%3D%220%22%2F%3E%3CmxCell%20id%3D%222%22%20value%3D%22%22%20style%3D%22rounded%3D0%3BwhiteSpace%3Dwrap%3Bhtml%3D1%3BfontSize%3D36%3B%22%20vertex%3D%221%22%20parent%3D%221%22%3E%3CmxGeometry%20x%3D%22102.5%22%20y%3D%22127.6%22%20width%3D%22150%22%20height%3D%2212.4%22%20as%3D%22geometry%22%2F%3E%3C%2FmxCell%3E%3C%2Froot%3E%3C%2FmxGraphModel%3E&lt;/span&gt;" style="rounded=0;whiteSpace=wrap;html=1;fontSize=36;" vertex="1" parent="253">
                    <mxGeometry y="8.799999999999988" width="150" height="12.4" as="geometry"/>
                </mxCell>
                <mxCell id="255" value="Action&lt;span style=&quot;color: rgba(0, 0, 0, 0); font-family: monospace; font-size: 0px; text-align: start;&quot;&gt;%3CmxGraphModel%3E%3Croot%3E%3CmxCell%20id%3D%220%22%2F%3E%3CmxCell%20id%3D%221%22%20parent%3D%220%22%2F%3E%3CmxCell%20id%3D%222%22%20value%3D%22%22%20style%3D%22rounded%3D0%3BwhiteSpace%3Dwrap%3Bhtml%3D1%3BfontSize%3D36%3B%22%20vertex%3D%221%22%20parent%3D%221%22%3E%3CmxGeometry%20x%3D%22102.5%22%20y%3D%22127.6%22%20width%3D%22150%22%20height%3D%2212.4%22%20as%3D%22geometry%22%2F%3E%3C%2FmxCell%3E%3C%2Froot%3E%3C%2FmxGraphModel%3E&lt;/span&gt;" style="text;strokeColor=none;align=center;fillColor=none;html=1;verticalAlign=middle;whiteSpace=wrap;rounded=0;fontSize=8;" vertex="1" parent="253">
                    <mxGeometry x="45" width="60" height="30" as="geometry"/>
                </mxCell>
                <mxCell id="256" value="" style="group" vertex="1" connectable="0" parent="253">
                    <mxGeometry y="21.19999999999999" width="150" height="59.99999999999999" as="geometry"/>
                </mxCell>
                <mxCell id="257" value="" style="group" vertex="1" connectable="0" parent="256">
                    <mxGeometry width="150" height="59.99999999999999" as="geometry"/>
                </mxCell>
                <mxCell id="258" value="" style="group" vertex="1" connectable="0" parent="257">
                    <mxGeometry y="-8.799999999999988" width="150" height="30" as="geometry"/>
                </mxCell>
                <mxCell id="259" value="&lt;span style=&quot;color: rgba(0, 0, 0, 0); font-family: monospace; font-size: 0px; text-align: start;&quot;&gt;%3CmxGraphModel%3E%3Croot%3E%3CmxCell%20id%3D%220%22%2F%3E%3CmxCell%20id%3D%221%22%20parent%3D%220%22%2F%3E%3CmxCell%20id%3D%222%22%20value%3D%22%22%20style%3D%22rounded%3D0%3BwhiteSpace%3Dwrap%3Bhtml%3D1%3BfontSize%3D36%3B%22%20vertex%3D%221%22%20parent%3D%221%22%3E%3CmxGeometry%20x%3D%22102.5%22%20y%3D%22127.6%22%20width%3D%22150%22%20height%3D%2212.4%22%20as%3D%22geometry%22%2F%3E%3C%2FmxCell%3E%3C%2Froot%3E%3C%2FmxGraphModel%3E&lt;/span&gt;" style="rounded=0;whiteSpace=wrap;html=1;fontSize=36;" vertex="1" parent="258">
                    <mxGeometry y="8.799999999999988" width="150" height="12.4" as="geometry"/>
                </mxCell>
                <mxCell id="260" value="Action&lt;span style=&quot;color: rgba(0, 0, 0, 0); font-family: monospace; font-size: 0px; text-align: start;&quot;&gt;%3CmxGraphModel%3E%3Croot%3E%3CmxCell%20id%3D%220%22%2F%3E%3CmxCell%20id%3D%221%22%20parent%3D%220%22%2F%3E%3CmxCell%20id%3D%222%22%20value%3D%22%22%20style%3D%22rounded%3D0%3BwhiteSpace%3Dwrap%3Bhtml%3D1%3BfontSize%3D36%3B%22%20vertex%3D%221%22%20parent%3D%221%22%3E%3CmxGeometry%20x%3D%22102.5%22%20y%3D%22127.6%22%20width%3D%22150%22%20height%3D%2212.4%22%20as%3D%22geometry%22%2F%3E%3C%2FmxCell%3E%3C%2Froot%3E%3C%2FmxGraphModel%3E&lt;/span&gt;" style="text;strokeColor=none;align=center;fillColor=none;html=1;verticalAlign=middle;whiteSpace=wrap;rounded=0;fontSize=8;" vertex="1" parent="258">
                    <mxGeometry x="45" width="60" height="30" as="geometry"/>
                </mxCell>
            </root>
        </mxGraphModel>
    </diagram>
</mxfile>